grf
version=1
nRows=14
nColumns=37
inDegrees=no
endheader
time	ground_force_1_vx	ground_force_1_vy	ground_force_1_vz	ground_force_1_px	ground_force_1_py	ground_force_1_pz	ground_moment_1_mx	ground_moment_1_my	ground_moment_1_mz	ground_force_2_vx	ground_force_2_vy	ground_force_2_vz	ground_force_2_px	ground_force_2_py	ground_force_2_pz	ground_moment_2_mx	ground_moment_2_my	ground_moment_2_mz	ground_force_3_vx	ground_force_3_vy	ground_force_3_vz	ground_force_3_px	ground_force_3_py	ground_force_3_pz	ground_moment_3_mx	ground_moment_3_my	ground_moment_3_mz	ground_force_4_vx	ground_force_4_vy	ground_force_4_vz	ground_force_4_px	ground_force_4_py	ground_force_4_pz	ground_moment_4_mx	ground_moment_4_my	ground_moment_4_mz
      4.64000000	      0.00000000	     -0.00000000	      0.00000000	      0.00000000	      0.00000000	      0.00000000	      0.00000000	      0.00000000	      0.00000000	     12.87631226	     47.22759628	   -354.94586182	   -296.98609992	  -1124.79574109	      0.00000000	      0.00000000	      0.00000000	   2090.04420208	     19.68139585	    -29.03421383	   -307.60260010	   -292.62805042	   -704.21650020	      0.00000000	      0.00000000	     -0.00000000	  -1128.13543539	      0.00000000	     -0.00000000	      0.00000000	      0.00000000	      0.00000000	      0.00000000	      0.00000000	      0.00000000	      0.00000000
      4.65000000	      0.00000000	     -0.00000000	      0.00000000	      0.00000000	      0.00000000	      0.00000000	      0.00000000	      0.00000000	      0.00000000	     13.80957031	     48.99802780	   -376.86538696	   -300.40510870	  -1121.96557173	      0.00000000	      0.00000000	      0.00000000	   2158.56422486	     21.51521396	    -32.83785054	   -332.13610840	   -294.98463458	   -705.85303509	      0.00000000	      0.00000000	     -0.00000000	  -1271.01162750	      0.00000000	     -0.00000000	      0.00000000	      0.00000000	      0.00000000	      0.00000000	      0.00000000	      0.00000000	      0.00000000
      4.66000000	      0.00000000	     -0.00000000	      0.00000000	      0.00000000	      0.00000000	      0.00000000	      0.00000000	      0.00000000	      0.00000000	     16.02897263	     50.33507538	   -404.05883789	   -303.56629175	  -1122.02704310	      0.00000000	      0.00000000	      0.00000000	   2447.70606145	     22.97609013	    -36.11825762	   -359.11294556	   -297.94713124	   -708.00111155	      0.00000000	      0.00000000	     -0.00000000	  -1337.61016507	      0.00000000	     -0.00000000	      0.00000000	      0.00000000	      0.00000000	      0.00000000	      0.00000000	      0.00000000	      0.00000000
      4.67000000	      0.00000000	     -0.00000000	      0.00000000	      0.00000000	      0.00000000	      0.00000000	      0.00000000	      0.00000000	      0.00000000	     16.84205246	     52.12256622	   -425.97265625	   -305.64395593	  -1119.60088584	      0.00000000	      0.00000000	      0.00000000	   2494.98917002	     24.43741469	    -37.67638229	   -383.51724243	   -299.82298383	   -709.06598831	      0.00000000	      0.00000000	     -0.00000000	  -1593.63063229	      0.00000000	     -0.00000000	      0.00000000	      0.00000000	      0.00000000	      0.00000000	      0.00000000	      0.00000000	      0.00000000
      4.68000000	      0.00000000	     -0.00000000	      0.00000000	      0.00000000	      0.00000000	      0.00000000	      0.00000000	      0.00000000	      0.00000000	     17.88456154	     55.46246338	   -449.50552368	   -306.85122629	  -1121.50049123	      0.00000000	      0.00000000	      0.00000000	   2545.66341844	     25.12406955	    -39.83308630	   -411.74133301	   -299.72567680	   -708.02550562	      0.00000000	      0.00000000	     -0.00000000	  -1858.26804184	      0.00000000	     -0.00000000	      0.00000000	      0.00000000	      0.00000000	      0.00000000	      0.00000000	      0.00000000	      0.00000000
      4.69000000	      0.00000000	     -0.00000000	      0.00000000	      0.00000000	      0.00000000	      0.00000000	      0.00000000	      0.00000000	      0.00000000	     18.55199242	     59.34519958	   -462.92684937	   -307.36757797	  -1120.98696212	      0.00000000	      0.00000000	      0.00000000	   2713.80063679	     22.84109899	    -41.29231080	   -435.57424927	   -298.44899839	   -707.89127140	      0.00000000	      0.00000000	     -0.00000000	  -1862.49954412	      0.00000000	     -0.00000000	      0.00000000	      0.00000000	      0.00000000	      0.00000000	      0.00000000	      0.00000000	      0.00000000
      4.70000000	      0.00000000	     -0.00000000	      0.00000000	      0.00000000	      0.00000000	      0.00000000	      0.00000000	      0.00000000	      0.00000000	     18.59867668	     64.12760925	   -470.51379395	   -307.06227271	  -1121.69794204	      0.00000000	      0.00000000	      0.00000000	   2623.89862257	     20.26866897	    -45.44324289	   -454.33697510	   -297.40220120	   -706.93544646	      0.00000000	      0.00000000	     -0.00000000	  -2158.94687476	      0.00000000	     -0.00000000	      0.00000000	      0.00000000	      0.00000000	      0.00000000	      0.00000000	      0.00000000	      0.00000000
      4.71000000	      0.00000000	     -0.00000000	      0.00000000	      0.00000000	      0.00000000	      0.00000000	      0.00000000	      0.00000000	      0.00000000	     17.39315605	     66.75579071	   -473.15850830	   -306.36188069	  -1122.54771873	      0.00000000	      0.00000000	      0.00000000	   2553.93732411	     18.33726071	    -49.28644722	   -467.78460693	   -295.77317020	   -705.03055379	      0.00000000	      0.00000000	     -0.00000000	  -2250.57348699	      0.00000000	     -0.00000000	      0.00000000	      0.00000000	      0.00000000	      0.00000000	      0.00000000	      0.00000000	      0.00000000
      4.72000000	      0.00000000	     -0.00000000	      0.00000000	      0.00000000	      0.00000000	      0.00000000	      0.00000000	      0.00000000	      0.00000000	     16.60878181	     67.69575500	   -469.21398926	   -305.29836378	  -1121.31243813	      0.00000000	      0.00000000	      0.00000000	   2682.01844545	     17.34419740	    -53.14943847	   -475.01589966	   -294.08457521	   -704.45914749	      0.00000000	      0.00000000	     -0.00000000	  -2238.11024736	      0.00000000	     -0.00000000	      0.00000000	      0.00000000	      0.00000000	      0.00000000	      0.00000000	      0.00000000	      0.00000000
      4.73000000	      0.00000000	     -0.00000000	      0.00000000	      0.00000000	      0.00000000	      0.00000000	      0.00000000	      0.00000000	      0.00000000	     14.29453850	     67.06774139	   -463.81549072	   -303.66387965	  -1123.32524520	      0.00000000	      0.00000000	      0.00000000	   2658.30020845	     15.80920584	    -56.43954225	   -480.18057251	   -292.28809638	   -703.61396794	      0.00000000	      0.00000000	     -0.00000000	  -2190.64395734	      0.00000000	     -0.00000000	      0.00000000	      0.00000000	      0.00000000	      0.00000000	      0.00000000	      0.00000000	      0.00000000
      4.74000000	      0.00000000	     -0.00000000	      0.00000000	      0.00000000	      0.00000000	      0.00000000	      0.00000000	      0.00000000	      0.00000000	     11.37199879	     64.50773621	   -454.97323608	   -300.83131761	  -1123.50365122	      0.00000000	      0.00000000	      0.00000000	   2536.61192029	     13.06306508	    -59.63800544	   -485.58102417	   -289.60241551	   -700.79766366	      0.00000000	      0.00000000	     -0.00000000	  -2268.76800702	      0.00000000	     -0.00000000	      0.00000000	      0.00000000	      0.00000000	      0.00000000	      0.00000000	      0.00000000	      0.00000000
      4.75000000	      0.00000000	     -0.00000000	      0.00000000	      0.00000000	      0.00000000	      0.00000000	      0.00000000	      0.00000000	      0.00000000	      9.03282070	     61.85649872	   -444.38967896	   -298.06110305	  -1124.58400869	      0.00000000	      0.00000000	      0.00000000	   2521.75553169	     10.77890238	    -61.75921344	   -486.89407349	   -287.16869580	   -699.34347435	      0.00000000	      0.00000000	     -0.00000000	  -2370.33568365	      0.00000000	     -0.00000000	      0.00000000	      0.00000000	      0.00000000	      0.00000000	      0.00000000	      0.00000000	      0.00000000
      4.76000000	      0.00000000	     -0.00000000	      0.00000000	      0.00000000	      0.00000000	      0.00000000	      0.00000000	      0.00000000	      0.00000000	      6.71211195	     59.71681595	   -430.17095947	   -294.64600582	  -1124.84224142	      0.00000000	      0.00000000	      0.00000000	   2568.51550687	      8.78236212	    -63.87881928	   -484.79580688	   -283.95406865	   -697.90358365	      0.00000000	      0.00000000	     -0.00000000	  -2408.26397227	      0.00000000	     -0.00000000	      0.00000000	      0.00000000	      0.00000000	      0.00000000	      0.00000000	      0.00000000	      0.00000000
      4.77000000	      0.00000000	     -0.00000000	      0.00000000	      0.00000000	      0.00000000	      0.00000000	      0.00000000	      0.00000000	      0.00000000	      4.34893703	     57.71190643	   -417.45819092	   -291.45604232	  -1126.16028735	      0.00000000	      0.00000000	      0.00000000	   2599.36482702	      5.54421522	    -65.20365191	   -479.55895996	   -281.51772155	   -695.90346872	      0.00000000	      0.00000000	     -0.00000000	  -2336.36837642	      0.00000000	     -0.00000000	      0.00000000	      0.00000000	      0.00000000	      0.00000000	      0.00000000	      0.00000000	      0.00000000
